<svg width="434" height="106" fill="none" xmlns="http://www.w3.org/2000/svg"><g clip-path="url(#clip0)"><g clip-path="url(#clip1)"><path d="M431.321 48.364v-7.57h-9.401V29.025l-.316.098-8.83 2.701-.174.053v8.917h-13.937v-4.967c0-2.314.517-4.084 1.537-5.264 1.012-1.166 2.46-1.76 4.307-1.76 1.327 0 2.702.313 4.085.93l.347.155v-7.973l-.163-.06c-1.291-.463-3.046-.697-5.222-.697-2.742 0-5.233.597-7.406 1.78a12.66 12.66 0 00-5.082 5.024c-1.194 2.146-1.8 4.626-1.8 7.37v5.462h-6.546v7.57h6.546v31.892h9.397V48.364H412.6v20.267c0 8.347 3.937 12.576 11.702 12.576 1.275 0 2.618-.15 3.99-.442 1.395-.3 2.346-.6 2.906-.921l.123-.074v-7.64l-.382.253c-.51.34-1.145.618-1.89.824-.747.21-1.372.316-1.856.316-1.819 0-3.165-.49-3.999-1.458-.845-.976-1.273-2.683-1.273-5.07V48.364h9.4zm-69.586 25.16c-3.41 0-6.099-1.131-7.994-3.359-1.907-2.239-2.873-5.431-2.873-9.487 0-4.184.966-7.46 2.873-9.738 1.897-2.263 4.56-3.412 7.918-3.412 3.258 0 5.852 1.097 7.71 3.263 1.867 2.177 2.815 5.426 2.815 9.659 0 4.285-.891 7.576-2.648 9.778-1.746 2.186-4.37 3.296-7.801 3.296zm.418-33.68c-6.507 0-11.675 1.906-15.361 5.666-3.682 3.761-5.549 8.966-5.549 15.471 0 6.179 1.822 11.148 5.417 14.769 3.596 3.622 8.488 5.457 14.542 5.457 6.307 0 11.373-1.934 15.056-5.746 3.683-3.809 5.549-8.964 5.549-15.317 0-6.276-1.751-11.282-5.206-14.879-3.456-3.598-8.318-5.422-14.448-5.422zm-36.061 0c-4.426 0-8.088 1.131-10.885 3.364-2.814 2.245-4.241 5.19-4.241 8.755 0 1.852.308 3.498.914 4.893.61 1.4 1.554 2.634 2.808 3.669 1.245 1.026 3.166 2.101 5.712 3.195 2.14.88 3.736 1.626 4.75 2.213.991.575 1.695 1.154 2.092 1.717.386.551.582 1.306.582 2.237 0 2.651-1.986 3.941-6.071 3.941-1.515 0-3.244-.316-5.137-.94a19.306 19.306 0 01-5.261-2.667l-.39-.28v9.047l.143.067c1.33.613 3.006 1.13 4.982 1.538 1.972.408 3.764.615 5.32.615 4.803 0 8.671-1.138 11.494-3.383 2.84-2.261 4.28-5.276 4.28-8.963 0-2.66-.775-4.941-2.303-6.78-1.517-1.825-4.15-3.5-7.822-4.981-2.925-1.175-4.8-2.15-5.573-2.898-.745-.723-1.124-1.745-1.124-3.04 0-1.147.467-2.066 1.426-2.811.967-.748 2.312-1.129 3.999-1.129 1.566 0 3.168.247 4.761.732 1.592.485 2.99 1.134 4.158 1.928l.383.262v-8.582l-.147-.063c-1.077-.462-2.497-.857-4.221-1.178-1.717-.318-3.275-.479-4.629-.479zm-39.624 33.68c-3.41 0-6.1-1.131-7.994-3.359-1.907-2.239-2.872-5.43-2.872-9.487 0-4.184.966-7.46 2.874-9.738 1.895-2.263 4.557-3.412 7.917-3.412 3.257 0 5.851 1.097 7.709 3.263 1.868 2.177 2.815 5.426 2.815 9.659 0 4.285-.891 7.576-2.649 9.778-1.745 2.186-4.368 3.296-7.8 3.296zm.419-33.68c-6.509 0-11.677 1.906-15.36 5.666-3.683 3.761-5.552 8.966-5.552 15.471 0 6.181 1.824 11.148 5.42 14.769 3.595 3.622 8.487 5.457 14.54 5.457 6.307 0 11.374-1.934 15.057-5.746 3.683-3.809 5.549-8.964 5.549-15.317 0-6.276-1.751-11.282-5.207-14.879-3.457-3.598-8.318-5.422-14.447-5.422zm-35.176 7.784v-6.834h-9.282v39.461h9.282V60.069c0-3.432.778-6.252 2.314-8.382 1.516-2.105 3.537-3.171 6.003-3.171.837 0 1.775.138 2.792.41 1.006.272 1.734.566 2.164.876l.39.283v-9.359l-.15-.064c-.865-.367-2.088-.553-3.635-.553-2.333 0-4.42.75-6.208 2.225-1.569 1.298-2.704 3.076-3.571 5.294h-.099zm-25.905-7.785c-4.259 0-8.057.913-11.288 2.713-3.238 1.805-5.742 4.38-7.445 7.656-1.696 3.267-2.557 7.084-2.557 11.34 0 3.73.835 7.15 2.485 10.166 1.651 3.02 3.988 5.384 6.946 7.023 2.954 1.637 6.368 2.467 10.148 2.467 4.411 0 8.178-.882 11.198-2.621l.121-.07v-8.505l-.39.285a17.448 17.448 0 01-4.541 2.365c-1.641.572-3.136.862-4.448.862-3.642 0-6.566-1.14-8.689-3.387-2.127-2.25-3.205-5.409-3.205-9.384 0-4 1.125-7.241 3.341-9.632 2.21-2.384 5.139-3.593 8.706-3.593 3.051 0 6.024 1.033 8.837 3.073l.389.283v-8.96l-.125-.071c-1.059-.593-2.502-1.082-4.295-1.453a25.642 25.642 0 00-5.188-.557zm-27.683.951h-9.283v39.461h9.283v-39.46zm-4.546-16.81c-1.528 0-2.861.52-3.955 1.55-1.1 1.034-1.657 2.335-1.657 3.87 0 1.512.551 2.79 1.639 3.796 1.082 1.003 2.419 1.511 3.973 1.511 1.554 0 2.895-.508 3.99-1.51 1.102-1.007 1.661-2.284 1.661-3.796 0-1.482-.544-2.77-1.616-3.829-1.07-1.057-2.429-1.592-4.035-1.592zm-23.161 13.899v42.372h9.473V25.192h-13.111l-16.665 40.9-16.173-40.9h-13.645v55.063h8.902V37.879h.306l17.078 42.376h6.718l16.812-42.372h.305z" fill="#706D6E"/><path d="M44.533 50.458H.866V6.79h43.667v43.668z" fill="#F1511B"/><path d="M92.747 50.459H49.08V6.79h43.667v43.67z" fill="#80CC28"/><path d="M44.532 98.69H.866V55.022h43.666v43.666z" fill="#00ADEF"/><path d="M92.747 98.69H49.08V55.022h43.667v43.666z" fill="#FBBC09"/></g></g><defs><clipPath id="clip0"><path fill="#fff" transform="translate(.865 .596)" d="M0 0h432.768v104.914H0z"/></clipPath><clipPath id="clip1"><path fill="#fff" transform="translate(.866 6.768)" d="M0 0h430.454v91.945H0z"/></clipPath></defs></svg>