<svg width="281" height="68" fill="none" xmlns="http://www.w3.org/2000/svg"><path fill-rule="evenodd" clip-rule="evenodd" d="M42.77 18.955c0 7.155-5.803 12.956-12.964 12.956-7.16 0-12.964-5.801-12.964-12.956C16.842 11.8 22.646 6 29.806 6s12.965 5.8 12.965 12.955zM12.966 35.15C5.805 35.15 0 40.949 0 48.104S5.805 61.06 12.965 61.06s12.965-5.8 12.965-12.955S20.125 35.15 12.965 35.15zm33.683-.001c-7.16 0-12.965 5.8-12.965 12.955S39.488 61.06 46.648 61.06s12.965-5.8 12.965-12.955S53.808 35.15 46.648 35.15z" fill="url(#paint0_radial)"/><path fill-rule="evenodd" clip-rule="evenodd" d="M105.233 47.95c.169 1.922 1.707 4.369 4.372 4.369h1.56c.604 0 1.1-.495 1.1-1.1V16.948h-.007a1.1 1.1 0 00-1.093-1.04h-4.833c-.584 0-1.061.463-1.094 1.04h-.005v2.785c-2.961-3.647-7.629-5.16-12.31-5.16-10.64 0-19.265 8.625-19.265 19.265 0 10.641 8.625 19.267 19.265 19.267 4.681 0 9.782-1.815 12.309-5.159l.001.005zm-12.29-1.588c-6.768 0-12.254-5.607-12.254-12.524 0-6.916 5.486-12.523 12.253-12.523s12.252 5.607 12.252 12.523c0 6.917-5.485 12.524-12.252 12.524zm91.016 1.588c.169 1.923 1.708 4.369 4.373 4.369h1.559c.605 0 1.1-.495 1.1-1.1V16.95h-.007a1.099 1.099 0 00-1.093-1.04h-4.832a1.1 1.1 0 00-1.094 1.04h-.006v2.784c-2.961-3.647-7.629-5.16-12.31-5.16-10.639 0-19.264 8.625-19.264 19.265 0 10.642 8.625 19.267 19.264 19.267v.001c4.681 0 9.783-1.816 12.309-5.16l.001.005zm-12.291-1.588c-6.766 0-12.252-5.606-12.252-12.524 0-6.916 5.486-12.523 12.252-12.523 6.767 0 12.252 5.607 12.252 12.523 0 6.918-5.485 12.524-12.252 12.524zm100.301 1.588c.169 1.923 1.707 4.369 4.373 4.369h1.559c.605 0 1.1-.495 1.1-1.1V16.95h-.007a1.099 1.099 0 00-1.093-1.04h-4.832a1.1 1.1 0 00-1.094 1.04h-.006v2.784c-2.961-3.647-7.628-5.16-12.309-5.16-10.641 0-19.265 8.625-19.265 19.265 0 10.642 8.624 19.267 19.265 19.267v.001c4.681 0 9.782-1.816 12.308-5.16l.001.005zm-12.291-1.588c-6.766 0-12.253-5.606-12.253-12.524 0-6.916 5.487-12.523 12.253-12.523 6.767 0 12.253 5.607 12.253 12.523 0 6.918-5.486 12.524-12.253 12.524zm-25.394 2.768l-.003-17.735h.001c0-9.996-6.306-16.74-16.363-16.74-4.8 0-8.735 2.776-10.125 5.16-.301-1.864-1.291-3.824-4.36-3.824h-1.565c-.605 0-1.099.496-1.099 1.1v34.274h.006a1.1 1.1 0 001.094 1.04h4.832c.074 0 .146-.01.216-.023.032-.006.062-.019.093-.027.036-.011.074-.02.108-.034.043-.018.082-.042.122-.064.019-.012.04-.02.059-.033a1.11 1.11 0 00.135-.107l.022-.018c.048-.046.092-.098.131-.15v-.002a1.08 1.08 0 00.207-.582h.006V31.12c0-5.369 4.353-9.721 9.722-9.721s9.722 4.352 9.722 9.721l.004 16.922.001-.006c0 .015.003.03.003.047v3.282h.006a1.1 1.1 0 001.094 1.04h4.832c.074 0 .147-.01.216-.023.029-.005.055-.017.083-.024.04-.012.081-.022.119-.037.039-.016.075-.04.113-.06.022-.013.046-.023.068-.037a1.23 1.23 0 00.126-.1c.01-.01.021-.016.031-.026.046-.044.087-.092.124-.142l.009-.01c.119-.165.191-.363.204-.578l.001-.003h.006V49.13h-.001zm-110.476-6.088c3.226 2.235 6.747 3.32 10.131 3.32 3.224 0 6.556-1.67 6.556-4.58 0-3.883-7.262-4.487-11.824-6.038-4.564-1.55-8.494-4.756-8.494-9.948 0-7.943 7.078-11.224 13.684-11.224 4.185 0 8.504 1.38 11.304 3.357.964.731.377 1.57.377 1.57l-2.673 3.817c-.3.43-.826.802-1.58.336-.754-.465-3.398-2.337-7.428-2.337-4.031 0-6.459 1.862-6.459 4.169 0 2.766 3.156 3.636 6.852 4.58 6.44 1.736 13.466 3.822 13.466 11.719 0 6.998-6.546 11.324-13.781 11.324-5.483 0-10.151-1.563-14.066-4.436-.816-.817-.246-1.575-.246-1.575l2.66-3.797c.541-.71 1.223-.463 1.521-.257z" fill="#273347"/><defs><radialGradient id="paint0_radial" cx="0" cy="0" r="1" gradientUnits="userSpaceOnUse" gradientTransform="matrix(29.29501 22.32005 -21.67977 28.45464 29.992 38.917)"><stop stop-color="#FFB900"/><stop offset=".747" stop-color="#FA5C86"/><stop offset="1" stop-color="#F95353"/></radialGradient></defs></svg>