<svg width="281" height="68" fill="none" xmlns="http://www.w3.org/2000/svg"><path d="M33.912 68c18.729 0 33.912-15.222 33.912-34S52.64 0 33.912 0C15.182 0 0 15.222 0 34s15.183 34 33.912 34z" fill="#FF8A00"/><path d="M37.091 24.968a4.245 4.245 0 00-4.239-4.25 4.244 4.244 0 00-4.239 4.25v23.375a4.244 4.244 0 004.24 4.25 4.245 4.245 0 004.238-4.25V24.968zm-13.777 7.97a4.244 4.244 0 00-4.24-4.25 4.245 4.245 0 00-4.238 4.25v15.406a4.245 4.245 0 004.239 4.25 4.244 4.244 0 004.239-4.25V32.938zM50.867 17.53a4.245 4.245 0 00-4.239-4.25 4.245 4.245 0 00-4.239 4.25v30.814a4.245 4.245 0 004.24 4.25 4.245 4.245 0 004.238-4.25V17.53z" fill="#FDF9F5"/><path fill-rule="evenodd" clip-rule="evenodd" d="M85.599 19.625a4.632 4.632 0 01-1.814-.364 4.652 4.652 0 01-1.507-1.008 4.75 4.75 0 01-1.005-1.483 4.608 4.608 0 01-.363-1.846 4.602 4.602 0 011.368-3.33 4.651 4.651 0 011.507-1.008 4.634 4.634 0 011.814-.364c1.303 0 2.419.458 3.35 1.372.93.914 1.395 2.024 1.395 3.33 0 1.305-.465 2.415-1.395 3.33-.93.913-2.047 1.37-3.35 1.37zM81.97 51.02V23.6h7.314v27.423H81.97zm31.084.616v-3.918c-.669 1.157-1.712 2.146-3.126 2.966-1.414.821-3.163 1.232-5.247 1.232-1.749 0-3.414-.364-4.996-1.092-1.578-.725-3-1.751-4.186-3.022-1.21-1.287-2.168-2.826-2.875-4.617-.707-1.79-1.06-3.75-1.06-5.876 0-2.127.353-4.086 1.06-5.876.707-1.792 1.665-3.33 2.875-4.617a13.359 13.359 0 014.186-3.023 11.812 11.812 0 014.996-1.091c2.084 0 3.833.41 5.247 1.231 1.414.821 2.456 1.81 3.126 2.966l.003-3.302h7.309V63.11h-7.312V51.637zm-6.866-6.492a7.29 7.29 0 002.763-.531 6.897 6.897 0 002.317-1.54c.67-.671 1.21-1.492 1.619-2.462.409-.97.614-2.07.614-3.302 0-1.231-.205-2.332-.614-3.302-.409-.97-.95-1.79-1.619-2.463a6.895 6.895 0 00-2.317-1.539 7.285 7.285 0 00-2.763-.531c-.967 0-1.889.186-2.763.56a7.276 7.276 0 00-2.317 1.566c-.669.672-1.209 1.493-1.618 2.463-.41.97-.614 2.052-.614 3.246s.204 2.276.614 3.246c.41.97.949 1.79 1.618 2.463a7.275 7.275 0 002.317 1.566 6.969 6.969 0 002.763.56zm40.285-22.442c2.122 0 4.066.364 5.834 1.091 1.768.727 3.293 1.735 4.577 3.023 1.284 1.287 2.289 2.825 3.015 4.617.725 1.79 1.088 3.75 1.088 5.876 0 2.126-.363 4.085-1.088 5.876-.726 1.791-1.731 3.33-3.015 4.617s-2.81 2.295-4.577 3.022c-1.768.728-3.712 1.092-5.833 1.092-2.122 0-4.066-.364-5.834-1.092-1.768-.727-3.293-1.735-4.577-3.022-1.284-1.287-2.289-2.826-3.014-4.617-.726-1.79-1.089-3.75-1.089-5.876 0-2.127.363-4.086 1.089-5.876.725-1.792 1.73-3.33 3.014-4.617 1.284-1.288 2.81-2.296 4.577-3.023 1.768-.727 3.712-1.091 5.833-1.091zm0 22.442c.93 0 1.833-.177 2.708-.531a6.917 6.917 0 002.317-1.54c.669-.671 1.2-1.492 1.59-2.462.391-.97.586-2.07.586-3.302 0-1.231-.195-2.332-.586-3.302-.39-.97-.92-1.79-1.59-2.463a6.915 6.915 0 00-2.317-1.539 7.146 7.146 0 00-2.708-.531c-.967 0-1.879.177-2.734.531a6.983 6.983 0 00-2.29 1.54c-.669.671-1.2 1.492-1.59 2.462-.391.97-.586 2.07-.586 3.302 0 1.231.195 2.331.586 3.302.39.97.92 1.79 1.59 2.462a6.982 6.982 0 002.29 1.54 7.069 7.069 0 002.734.53zm16.124-21.546h7.315V26.9c.667-1.156 1.709-2.145 3.124-2.966 1.414-.82 3.163-1.231 5.247-1.231 1.749 0 3.414.364 4.995 1.091a13.344 13.344 0 014.187 3.023c1.21 1.287 2.168 2.825 2.875 4.617.707 1.79 1.061 3.75 1.061 5.876 0 2.126-.354 4.085-1.061 5.876-.708 1.791-1.665 3.33-2.875 4.617a13.346 13.346 0 01-4.187 3.022 11.817 11.817 0 01-4.995 1.092c-2.084 0-3.833-.41-5.247-1.232-1.415-.82-2.457-1.809-3.126-2.966v15.39h-7.314V23.6h.001zm14.179 21.546c.967 0 1.888-.187 2.763-.56a7.271 7.271 0 002.316-1.566c.67-.672 1.21-1.493 1.619-2.463.409-.97.614-2.052.614-3.246s-.205-2.276-.614-3.246c-.409-.97-.949-1.791-1.619-2.463a7.271 7.271 0 00-2.316-1.567 6.97 6.97 0 00-2.763-.56 7.3 7.3 0 00-2.764.532 6.902 6.902 0 00-2.316 1.54c-.67.671-1.21 1.492-1.619 2.462-.409.97-.614 2.07-.614 3.302 0 1.231.205 2.331.614 3.302.409.97.949 1.79 1.619 2.462a6.903 6.903 0 002.316 1.54 7.288 7.288 0 002.764.53zm18.635-15.279h-4.801v-6.268h4.801v-8.394h7.312v8.394h6.699v6.268h-6.699V40.5c0 .634.065 1.222.196 1.763.13.54.381.998.753 1.37.521.598 1.266.896 2.233.896.633 0 1.135-.065 1.507-.196a4.7 4.7 0 001.061-.531l2.065 6.436c-.88.418-1.808.729-2.763.923-.986.205-2.075.308-3.265.308-1.377 0-2.614-.214-3.712-.644-1.098-.428-2.019-1.016-2.764-1.763-1.748-1.678-2.623-4.066-2.623-7.163V29.866zm21.148-10.241a4.638 4.638 0 01-1.815-.364 4.658 4.658 0 01-1.507-1.008 4.748 4.748 0 01-1.005-1.483 4.605 4.605 0 01-.363-1.846c0-.672.121-1.287.363-1.847a4.747 4.747 0 011.005-1.483 4.658 4.658 0 011.507-1.008 4.63 4.63 0 011.815-.364c1.302 0 2.418.458 3.349 1.372.93.914 1.395 2.024 1.395 3.33 0 1.305-.465 2.415-1.395 3.33-.931.913-2.047 1.37-3.349 1.37zM212.93 51.02V23.6h7.312v27.423h-7.312zm24.106-28.318c2.121 0 4.066.364 5.833 1.091 1.768.727 3.294 1.735 4.577 3.023 1.284 1.287 2.289 2.825 3.015 4.617.725 1.79 1.088 3.75 1.088 5.876 0 2.126-.363 4.085-1.088 5.876-.726 1.791-1.731 3.33-3.015 4.617-1.283 1.287-2.809 2.295-4.577 3.022-1.768.728-3.712 1.092-5.833 1.092s-4.066-.364-5.833-1.092c-1.768-.727-3.294-1.735-4.577-3.022-1.284-1.287-2.289-2.826-3.015-4.617-.725-1.79-1.088-3.75-1.088-5.876 0-2.127.363-4.086 1.088-5.876.726-1.792 1.731-3.33 3.015-4.617 1.283-1.288 2.809-2.296 4.577-3.023 1.767-.727 3.712-1.091 5.833-1.091zm0 22.442a7.15 7.15 0 002.707-.531 6.907 6.907 0 002.317-1.54c.67-.671 1.2-1.492 1.591-2.462.39-.97.586-2.07.586-3.302 0-1.231-.196-2.332-.586-3.302-.391-.97-.921-1.79-1.591-2.463a6.905 6.905 0 00-2.317-1.539 7.141 7.141 0 00-2.707-.531c-.967 0-1.88.177-2.735.531a6.969 6.969 0 00-2.289 1.54c-.67.671-1.2 1.492-1.591 2.462-.391.97-.586 2.07-.586 3.302 0 1.231.195 2.331.586 3.302.391.97.921 1.79 1.591 2.462a6.97 6.97 0 002.289 1.54 7.077 7.077 0 002.735.53zM259.97 27.18h.446a9.277 9.277 0 013.461-3.274c1.451-.802 3.108-1.203 4.968-1.203 1.712 0 3.219.28 4.521.84 1.303.559 2.373 1.352 3.21 2.378.837 1.026 1.47 2.257 1.898 3.694.428 1.436.642 3.031.642 4.785v16.622h-7.313V35.295c0-1.977-.437-3.442-1.311-4.393-.875-.952-2.149-1.427-3.824-1.427-1.005 0-1.889.214-2.651.643a6.195 6.195 0 00-1.954 1.735c-.54.728-.949 1.586-1.228 2.575a11.598 11.598 0 00-.419 3.162v13.432h-7.313V23.598h6.867v3.582z" fill="#22221F"/></svg>