<svg width="130" height="28" fill="none" xmlns="http://www.w3.org/2000/svg"><g clip-path="url(#clip0)" fill="#fff"><path d="M7.782 26.726s-.103.803-.814 1.127c-.71.323-1.15.053-1.524-.23L1.612 24.76S.082 23.273.025 22.183c-.056-1.091 0-14.938 0-14.938A3.392 3.392 0 01.8 5.27c.786-.965 2.707-2.446 2.707-2.446L6.14.747S7.29-.057 7.76.01"/><path d="M7.757 21.377l11.023-6.758s1.714-.95 1.634-3.347c-.078-2.398.194-3.784-.37-4.806l-5.944 3.55-6.343 3.93v7.43z"/><path d="M7.748 6.746l6.352 3.27 5.944-3.549a3.797 3.797 0 00-.672-.855c-.413-.381-1.25-.803-1.605-.994C17.412 4.426 9.286.441 9.286.441S8.426-.038 7.748 0v6.745z"/><path fill-rule="evenodd" clip-rule="evenodd" d="M36.857 6.6c-.823-.819-2.07-1.23-3.746-1.23h-5.334a1.696 1.696 0 00-1.164.462 1.552 1.552 0 00-.48 1.119v13.517h3.243v-5.4h3.972c1.552 0 2.74-.41 3.561-1.23.822-.88 1.234-2.079 1.234-3.599-.007-1.609-.435-2.822-1.286-3.64zm-2.512 5.22c-.366.35-.975.525-1.83.525h-3.148V8.002h3.334c.7 0 1.263.174 1.689.525.365.41.548.951.548 1.624 0 .79-.198 1.346-.593 1.67v-.002zm9.12-3.294c-1.735 0-3.09.542-4.063 1.624-.945 1.055-1.416 2.518-1.416 4.39 0 1.96.486 3.468 1.46 4.522.974 1.076 2.33 1.615 4.064 1.615 1.431 0 2.619-.335 3.563-1.008.943-.643 1.581-1.58 1.918-2.809h-2.288a1.404 1.404 0 00-.844.22.97.97 0 00-.344.351l-.247.248a.638.638 0 01-.252.146 2.68 2.68 0 01-1.325.307c-.791 0-1.385-.235-1.78-.702-.427-.44-.656-1.112-.685-2.02h7.9a.733.733 0 00.046-.306v-.475c0-1.931-.487-3.439-1.46-4.522-1.006-1.053-2.42-1.581-4.248-1.581h.001zm-2.238 4.916c.03-.76.258-1.347.685-1.76.215-.204.472-.365.756-.47.284-.106.585-.155.887-.144.731 0 1.294.204 1.69.613.365.382.576.969.638 1.761h-4.656zm14.84-4.652a9.38 9.38 0 00-2.395.302 5.746 5.746 0 00-2.033.965 4.778 4.778 0 00-1.439 1.866c-.35.775-.526 1.733-.526 2.875v5.661h3.202v-6.012c0-.88.212-1.524.638-1.932.426-.407 1.082-.61 1.966-.609h1.05V8.79h-.462zm6.078.703h-1.963v-.791c0-.352.076-.586.23-.703.182-.116.487-.175.914-.176h.822V5.41a5.291 5.291 0 00-.776-.043 4.907 4.907 0 00-.73-.045c-1.25 0-2.147.249-2.694.746-.578.528-.867 1.318-.867 2.37v12.026h3.105v-8.822h.456c.2-.002.4-.043.585-.119a1.54 1.54 0 00.493-.326 1.43 1.43 0 00.43-1.048l-.005-.657v.001zm7.575-.614c-1.005-.352-2.13-.447-3.38-.286a4.802 4.802 0 00-3.059 1.557 4.824 4.824 0 00-1.067 1.975 8.501 8.501 0 00-.344 2.37 9.444 9.444 0 00.413 2.786 4.316 4.316 0 001.372 2.13c.61.527 1.422.9 2.439 1.12a6.458 6.458 0 003.036-.067c1.125-.234 2.054-.834 2.785-1.799a6.13 6.13 0 00.82-1.712 8.055 8.055 0 00.32-2.413c0-1.288-.257-2.413-.775-3.373a4.59 4.59 0 00-2.56-2.289v.001zm-.37 8.25c-.365.527-.783.856-1.256.987a2.262 2.262 0 01-1.392-.043c-.457-.162-.777-.357-.96-.588-.455-.527-.714-1.455-.775-2.786-.061-1.33.232-2.335.877-3.012a2.41 2.41 0 011.005-.504 2.303 2.303 0 011.372.021c.457.147.86.483 1.21 1.01.351.525.526 1.315.526 2.369-.036 1.171-.238 2.02-.607 2.545zM89.9 9.532a7.081 7.081 0 00-3.696-1.01 9.427 9.427 0 00-1.94.286 4.093 4.093 0 00-1.62.813 4.393 4.393 0 00-1.83-.88 9.616 9.616 0 00-2.054-.22 7.284 7.284 0 00-3.586 1.097c-1.08.673-1.62 2.005-1.62 3.995v6.846h3.202v-7.456c0-.702.212-1.215.638-1.537.42-.32.934-.49 1.461-.482a2.453 2.453 0 011.485.482c.44.323.662.835.662 1.537v7.46h3.15v-7.46c0-.702.22-1.215.662-1.537a2.498 2.498 0 011.482-.485 2.5 2.5 0 011.485.485c.44.323.662.835.662 1.537v5.968c-.01.199.024.397.099.582.075.186.189.354.335.495a1.523 1.523 0 001.119.416h1.597v-6.847c0-2.046-.565-3.409-1.692-4.085zm11.001-.172c-.853-.555-2.13-.834-3.835-.835-1.523 0-2.697.337-3.515 1.01a3.338 3.338 0 00-1.279 2.237h3.059a1.2 1.2 0 01.293-.403c.126-.113.274-.2.436-.255a3.456 3.456 0 011.142-.176c.44.01.88.079 1.3.207.472.132.707.417.707.856 0 .587-.669.967-2.009 1.142-.245.024-.489.06-.73.109a2.79 2.79 0 01-.546.066c-1.153.17-2.104.52-2.854 1.053-.75.532-1.122 1.411-1.12 2.64 0 1.316.412 2.26 1.234 2.83.84.569 1.85.862 2.876.836a19.217 19.217 0 001.895-.11 5.786 5.786 0 002.031-.587 3.986 3.986 0 001.577-1.427c.441-.657.661-1.572.661-2.744v-3.99a2.739 2.739 0 00-.325-1.398 2.864 2.864 0 00-.998-1.061zm-1.643 6.321c0 .819-.243 1.463-.73 1.931-.487.469-1.156.702-2.009.702-.518 0-.913-.116-1.187-.35a1.42 1.42 0 01-.318-.485 1.374 1.374 0 01-.094-.568c.008-.345.119-.68.32-.965.245-.234.64-.424 1.188-.57l1.05-.22a8.858 8.858 0 001.78-.571v1.097zm12.561-6.15a7.082 7.082 0 00-3.699-1.008 7.282 7.282 0 00-3.585 1.096c-1.081.674-1.621 2.005-1.62 3.996v6.846h3.202v-7.46c0-.701.211-1.214.638-1.536a2.36 2.36 0 011.462-.481 2.462 2.462 0 011.485.482c.433.322.65.834.65 1.536v5.968a1.408 1.408 0 00.433 1.076 1.509 1.509 0 001.118.417h1.599v-6.847c.004-2.047-.557-3.409-1.683-4.085zm5.589 7.906v-6.496h.32a1.554 1.554 0 001.096-.417 1.4 1.4 0 00.458-1.075v-.616h-1.874V6.86a1.391 1.391 0 00-.457-1.053 1.445 1.445 0 00-.477-.323 1.503 1.503 0 00-.573-.117h-1.643v12.905c0 1.346.586 2.064 1.757 2.152 1.086.086 2.178.101 3.265.043v-2.281h-.957c-.61 0-.915-.25-.915-.748zm11.127-7.334c-1.004-1.052-2.42-1.579-4.246-1.579-1.736 0-3.09.542-4.064 1.624-.941 1.055-1.411 2.52-1.411 4.392 0 1.96.487 3.467 1.462 4.52.973 1.078 2.327 1.616 4.063 1.616 1.43 0 2.618-.335 3.562-1.008.943-.643 1.582-1.58 1.917-2.809h-2.286a1.403 1.403 0 00-.844.22.958.958 0 00-.343.351l-.251.242a.646.646 0 01-.252.147c-.408.214-.864.32-1.325.306-.791 0-1.384-.234-1.78-.702-.426-.439-.655-1.112-.684-2.02h7.9a.73.73 0 00.045-.307v-.468c.001-1.931-.485-3.439-1.458-4.522l-.005-.002v-.001zm-6.479 3.338c.029-.76.257-1.347.684-1.76a2.298 2.298 0 011.644-.615c.731 0 1.294.205 1.689.614.365.382.578.969.639 1.761h-4.656z"/></g><defs><clipPath id="clip0"><path fill="#fff" d="M0 0h130v28H0z"/></clipPath></defs></svg>