<svg width="32" height="18" fill="none" xmlns="http://www.w3.org/2000/svg"><path d="M5.185 6.75h-3a1.5 1.5 0 100 3h3a1.5 1.5 0 000-3zm25.17-4.26V2.4A4.5 4.5 0 0026.799.75H14.905a4.5 4.5 0 00-3 1.11 4.395 4.395 0 00-1.44 2.64L9.144 12a4.5 4.5 0 002.53 4.857 4.5 4.5 0 001.894.423h11.91a4.5 4.5 0 004.5-3.72l1.32-7.5a4.5 4.5 0 00-.944-3.57zm-4.11 1.26l-5.1 4.14a1.5 1.5 0 01-2.07-.18L15.58 3.75h10.664zm.72 9.255a1.5 1.5 0 01-1.5 1.245H13.569a1.499 1.499 0 01-1.14-.54 1.5 1.5 0 01-.33-1.215L13.3 5.7l3.526 3.99a4.5 4.5 0 006.21.525L28.195 6l-1.23 7.005zM6.684.75h-4.5a1.5 1.5 0 000 3h4.5a1.5 1.5 0 000-3z" fill="#fff"/></svg>