<svg width="124" height="123" fill="none" xmlns="http://www.w3.org/2000/svg"><g filter="url(#filter0_di)" clip-path="url(#clip0)"><path fill-rule="evenodd" clip-rule="evenodd" d="M76.321 27.43a6.845 6.845 0 100 13.69h13.29L64.325 67.36 51.696 54.732a6.845 6.845 0 00-9.753.074L13.075 84.567a6.845 6.845 0 009.826 9.532l24.03-24.773 12.644 12.645a6.845 6.845 0 009.77-.09L99.236 50.86v12.58a6.845 6.845 0 0013.69 0V34.275a6.845 6.845 0 00-6.845-6.845h-29.76z" fill="url(#paint0_linear)"/></g><defs><linearGradient id="paint0_linear" x1="62.035" y1="27.43" x2="62.035" y2="96.178" gradientUnits="userSpaceOnUse"><stop stop-color="#489876"/><stop offset="1" stop-color="#337157"/></linearGradient><clipPath id="clip0"><path fill="#fff" transform="translate(.632 .281)" d="M0 0h122.608v122.608H0z"/></clipPath><filter id="filter0_di" x="-.242" y="21.3" width="124.554" height="95.021" filterUnits="userSpaceOnUse" color-interpolation-filters="sRGB"><feFlood flood-opacity="0" result="BackgroundImageFix"/><feColorMatrix in="SourceAlpha" values="0 0 0 0 0 0 0 0 0 0 0 0 0 0 0 0 0 0 127 0" result="hardAlpha"/><feOffset dy="8.758"/><feGaussianBlur stdDeviation="5.693"/><feColorMatrix values="0 0 0 0 0.2 0 0 0 0 0.443137 0 0 0 0 0.341176 0 0 0 0.35 0"/><feBlend in2="BackgroundImageFix" result="effect1_dropShadow"/><feBlend in="SourceGraphic" in2="effect1_dropShadow" result="shape"/><feColorMatrix in="SourceAlpha" values="0 0 0 0 0 0 0 0 0 0 0 0 0 0 0 0 0 0 127 0" result="hardAlpha"/><feOffset dy="-8.758"/><feGaussianBlur stdDeviation="3.065"/><feComposite in2="hardAlpha" operator="arithmetic" k2="-1" k3="1"/><feColorMatrix values="0 0 0 0 0 0 0 0 0 0 0 0 0 0 0 0 0 0 0.2 0"/><feBlend in2="shape" result="effect2_innerShadow"/></filter></defs></svg>